<svg xmlns="http://www.w3.org/2000/svg" viewBox="0 0 100 120" width="100" height="120" role="img" aria-label="assassin">
  <g stroke="#241f1b" stroke-width="2.6" stroke-linejoin="round" stroke-linecap="round"><path d="M50 20c16 0 24 14 24 29l-5 63H31l-5-63c0-15 8-29 24-29z" fill="#3c3a46" />
      <path d="M50 20c16 0 24 14 24 29l-2 15H28l-2-15c0-15 8-29 24-29z" fill="#6f6c80" stroke-width="2"/>
      <path d="M38 44q12-7 24 0" fill="#241f1b" opacity=".5"/>
      <circle cx="44" cy="46" r="3" fill="#ff5e8a"/><circle cx="56" cy="46" r="3" fill="#ff5e8a"/>
      <path d="M80 46l6 56"  stroke="#ff5e8a" stroke-width="4" fill="none"/>
      <path d="M78 42h10l-2 8h-6z" fill="#6f6c80" stroke-width="2"/>
  </g>
</svg>
